<?xml version="1.0" encoding="UTF-8" standalone="no"?>
<!-- Created with Inkscape (http://www.inkscape.org/) -->

<svg
   xmlns:dc="http://purl.org/dc/elements/1.1/"
   xmlns:cc="http://creativecommons.org/ns#"
   xmlns:rdf="http://www.w3.org/1999/02/22-rdf-syntax-ns#"
   xmlns:svg="http://www.w3.org/2000/svg"
   xmlns="http://www.w3.org/2000/svg"
   xmlns:sodipodi="http://sodipodi.sourceforge.net/DTD/sodipodi-0.dtd"
   xmlns:inkscape="http://www.inkscape.org/namespaces/inkscape"
   width="210mm"
   height="297mm"
   viewBox="0 0 744.09448819 1052.3622047"
   id="svg4984"
   version="1.1"
   inkscape:version="0.91 r13725"
   sodipodi:docname="design.svg">
  <defs
     id="defs4986" />
  <sodipodi:namedview
     id="base"
     pagecolor="#ffffff"
     bordercolor="#666666"
     borderopacity="1.0"
     inkscape:pageopacity="0.0"
     inkscape:pageshadow="2"
     inkscape:zoom="0.98994949"
     inkscape:cx="380.0211"
     inkscape:cy="374.91651"
     inkscape:document-units="px"
     inkscape:current-layer="layer1"
     showgrid="false"
     inkscape:window-width="1364"
     inkscape:window-height="750"
     inkscape:window-x="0"
     inkscape:window-y="0"
     inkscape:window-maximized="0" />
  <metadata
     id="metadata4989">
    <rdf:RDF>
      <cc:Work
         rdf:about="">
        <dc:format>image/svg+xml</dc:format>
        <dc:type
           rdf:resource="http://purl.org/dc/dcmitype/StillImage" />
        <dc:title />
      </cc:Work>
    </rdf:RDF>
  </metadata>
  <g
     inkscape:label="Layer 1"
     inkscape:groupmode="layer"
     id="layer1">
    <path
       style="display:inline;opacity:1;fill:#a6aeff;fill-opacity:1;stroke:none;stroke-width:14.17322826;stroke-linecap:butt;stroke-linejoin:round;stroke-miterlimit:4;stroke-dasharray:none;stroke-dashoffset:0;stroke-opacity:0.83999999"
       d="m 53.149605,414.56693 531.496075,0 c 29.44488,0 53.14961,23.70472 53.14961,53.1496 l 0,531.49608 c 0,29.44489 -23.70473,53.14959 -53.14961,53.14959 l -531.496075,0 C 23.704724,1052.3622 0,1028.6575 0,999.21261 L 0,467.71653 c 0,-29.44488 23.704724,-53.1496 53.149605,-53.1496 z"
       id="baseplate"
       inkscape:label="#rect4923">
      <desc
         id="desc4174">height: 6 mm</desc>
    </path>
    <path
       style="display:inline;opacity:1;fill:#1a76cf;fill-opacity:1;stroke:none;stroke-width:28.34645653;stroke-linecap:round;stroke-linejoin:round;stroke-miterlimit:4;stroke-dasharray:none;stroke-dashoffset:0;stroke-opacity:1"
       d="M 317.85938,471.125 C 226.32172,471.6096 137.60801,520.0231 89.84375,605.56055 19.265684,731.95352 64.601165,891.93951 190.99414,962.51758 317.38711,1033.0957 477.3731,987.76211 547.95117,861.36914 618.52924,734.97616 573.19569,574.98822 446.80273,504.41016 c -39.4978,-22.05565 -82.2766,-32.79141 -124.58203,-33.27149 -1.45425,-0.0165 -2.90835,-0.0214 -4.36132,-0.0137 z m 2.01757,21.16211 c 39.51879,0.14303 79.57265,10.03143 116.56055,30.68555 28.02739,15.65054 51.70019,36.0506 70.60547,59.61718 a 21.729471,21.729471 0 0 0 -12.61524,10.15821 21.729471,21.729471 0 0 0 8.37696,29.5664 21.729471,21.729471 0 0 0 27.35156,-5.15234 c 38.69158,70.37408 41.32345,158.46763 -0.76563,233.8418 -37.08275,66.40872 -100.78485,108.44002 -170.27148,120.22461 a 21.729471,21.729471 0 0 0 -10.75586,-22.86524 21.729471,21.729471 0 0 0 -29.5664,8.37891 21.729471,21.729471 0 0 0 -1.48047,17.88476 C 277.99273,974.38638 238.15976,964.50643 201.35938,943.95703 95.15095,884.65006 51.270966,757.267 93.82813,647.00586 a 21.729471,21.729471 0 0 0 4.41992,3.28516 21.729471,21.729471 0 0 0 29.56445,-8.37696 21.729471,21.729471 0 0 0 -8.37695,-29.5664 21.729471,21.729471 0 0 0 -7.50391,-2.51172 c 44.37396,-74.39021 122.86782,-116.53562 204.12305,-117.53321 1.27356,-0.0156 2.54746,-0.0202 3.82226,-0.0156 z"
       id="ring"
       inkscape:connector-curvature="0"
       inkscape:label="#circle4925" />
    <path
       style="color:#000000;font-style:normal;font-variant:normal;font-weight:normal;font-stretch:normal;font-size:medium;line-height:normal;font-family:sans-serif;text-indent:0;text-align:start;text-decoration:none;text-decoration-line:none;text-decoration-style:solid;text-decoration-color:#000000;letter-spacing:normal;word-spacing:normal;text-transform:none;direction:ltr;block-progression:tb;writing-mode:lr-tb;baseline-shift:baseline;text-anchor:start;white-space:normal;clip-rule:nonzero;display:inline;overflow:visible;visibility:visible;opacity:1;isolation:auto;mix-blend-mode:normal;color-interpolation:sRGB;color-interpolation-filters:linearRGB;solid-color:#000000;solid-opacity:1;fill:#9c0000;fill-opacity:1;fill-rule:evenodd;stroke:none;stroke-width:70.86614227;stroke-linecap:round;stroke-linejoin:miter;stroke-miterlimit:4;stroke-dasharray:none;stroke-dashoffset:0;stroke-opacity:1;color-rendering:auto;image-rendering:auto;shape-rendering:auto;text-rendering:auto;enable-background:accumulate"
       d="m 312.5332,516.32812 c -25.57752,-0.54001 -52.76816,2.00933 -81.27539,8.0254 -25.10711,4.94443 -36.85708,34.05543 -22.21679,55.04296 -79.4422,41.02623 -116.948992,135.36032 -94.1836,219.50586 26.74013,98.8371 123.81746,162.07202 229.74219,151.15039 C 452.15469,938.96314 536.7294,847.16639 538.52539,726.07422 539.47551,662.01764 509.31333,600.1338 454.76758,560.74023 417.26737,533.65716 368.80375,517.51615 312.5332,516.32812 Z m -2.09765,163.36719 c 13.47324,0.42036 27.32745,3.92074 40.26367,11.15625 13.88051,8.0058 31.73699,5.42352 42.28103,-5.16073 10.54404,-10.58425 16.11869,23.2807 16.7053,31.75253 3.45815,55.1271 -36.65512,104.51537 -88.12696,105.77344 -55.98494,1.36838 -90.91473,-30.39068 -87.48242,-85.88868 1.40625,-22.73801 15.57629,-40.14864 38.38867,-50.3125 11.40619,-5.08192 24.49747,-7.74067 37.97071,-7.32031 z"
       id="walls"
       inkscape:connector-curvature="0"
       inkscape:label="#path4929"
       sodipodi:nodetypes="sccssssssczcssss">
      <desc
         id="desc4178">height: 11 mm</desc>
    </path>
    <path
       sodipodi:nodetypes="czzzzzzzc"
       inkscape:connector-curvature="0"
       id="spiral"
       d="m 238.57413,559.02301 c 166.92999,-35.2283 266.08899,60.9003 264.52229,166.5262 -1.5666,105.6257 -71.8499,179.9486 -162.13059,189.2571 -90.2806,9.3086 -169.7427,-43.2442 -191.9043,-125.1581 -22.1616,-81.9138 24.3164,-175.4033 117.5286,-192.8923 93.2122,-17.4888 173.83279,44.7099 178.45969,118.4687 4.6268,73.7586 -49.6352,141.6308 -122.62449,143.4148 -72.9892,1.784 -128.2932,-49.4524 -123.7138,-123.4979 4.5794,-74.0456 97.2132,-115.5265 169.2854,-75.2149"
       style="display:inline;opacity:1;fill:none;fill-rule:evenodd;stroke:#000000;stroke-width:28.34645653;stroke-linecap:round;stroke-linejoin:miter;stroke-miterlimit:4;stroke-dasharray:none;stroke-opacity:1"
       inkscape:label="#path4933" />
    <path
       transform="matrix(-0.48754075,0.87310023,-0.87310023,-0.48754075,0,0)"
       style="display:inline;opacity:1;fill:#e30000;fill-opacity:1;stroke:none;stroke-width:28.34645653;stroke-linecap:round;stroke-linejoin:round;stroke-miterlimit:4;stroke-dasharray:none;stroke-dashoffset:0;stroke-opacity:1"
       d="m 506.90276,-636.0235 a 21.990252,21.990252 0 0 1 -21.99025,21.99025 21.990252,21.990252 0 0 1 -21.99026,-21.99025 21.990252,21.990252 0 0 1 21.99026,-21.99025 21.990252,21.990252 0 0 1 21.99025,21.99025 z"
       id="leg_middle"
       inkscape:label="#circle4935">
      <desc
         id="desc4180">height: 12.6 mm</desc>
    </path>
    <path
       transform="matrix(-0.48754075,0.87310023,-0.87310023,-0.48754075,0,0)"
       style="display:inline;opacity:1;fill:#000000;fill-opacity:1;stroke:none;stroke-width:28.34645653;stroke-linecap:round;stroke-linejoin:round;stroke-miterlimit:4;stroke-dasharray:none;stroke-dashoffset:0;stroke-opacity:1"
       d="m 493.77077,-636.0235 a 8.8582678,8.8582678 0 0 1 -8.85826,8.85827 8.8582678,8.8582678 0 0 1 -8.85827,-8.85827 8.8582678,8.8582678 0 0 1 8.85827,-8.85827 8.8582678,8.8582678 0 0 1 8.85826,8.85827 z"
       id="hole_middle"
       inkscape:label="#circle4937">
      <desc
         id="desc4188">height: 20 mm</desc>
    </path>
    <path
       style="display:inline;opacity:1;fill:#e30000;fill-opacity:1;stroke:none;stroke-width:28.34645653;stroke-linecap:round;stroke-linejoin:round;stroke-miterlimit:4;stroke-dasharray:none;stroke-dashoffset:0;stroke-opacity:1"
       d="M 496.31836 545.26562 A 64.37252 64.37252 0 0 0 490.25586 559.09766 C 498.41896 567.13116 506.08819 575.83918 513.18359 585.20508 A 18.158043 18.158043 0 0 0 503.36328 588.21094 A 18.158043 18.158043 0 0 0 498.26758 613.37891 A 18.158043 18.158043 0 0 0 523.4375 618.47461 A 18.158043 18.158043 0 0 0 530.03711 610.61133 C 535.90201 620.78433 540.93586 631.23134 545.16016 641.86914 A 64.37252 64.37252 0 0 0 548.25195 642.19336 A 64.37252 64.37252 0 0 0 560.26758 641.67578 C 553.61528 623.78728 544.83108 606.37522 533.83008 589.79102 C 522.83138 573.21022 510.20876 558.34852 496.31836 545.26562 z M 118.44336 571.53906 C 106.31706 586.27686 95.675328 602.61804 86.861328 620.46094 C 78.049028 638.30024 71.538525 656.68107 67.203125 675.26367 A 64.37252 64.37252 0 0 0 82.210938 673.55664 C 85.056938 662.46284 88.731425 651.45719 93.265625 640.61719 A 18.158043 18.158043 0 0 0 100.79883 647.59961 A 18.158043 18.158043 0 0 0 125.12109 639.36133 A 18.158043 18.158043 0 0 0 116.88281 615.03906 A 18.158043 18.158043 0 0 0 106.76953 613.2832 C 112.61993 603.1019 119.12487 593.50021 126.20117 584.50391 A 64.37252 64.37252 0 0 0 124.92773 581.66797 A 64.37252 64.37252 0 0 0 118.44336 571.53906 z M 337.68359 949.17773 A 18.158043 18.158043 0 0 0 336.39844 949.22852 A 18.158043 18.158043 0 0 0 319.66211 968.70508 A 18.158043 18.158043 0 0 0 323.30078 978.30469 C 311.55928 978.45509 299.98467 977.74648 288.63867 976.23828 A 64.37252 64.37252 0 0 0 286.8457 978.77734 A 64.37252 64.37252 0 0 0 281.42969 989.51758 C 300.28879 992.44778 319.77464 993.28295 339.61914 991.78125 C 359.45944 990.27975 378.59103 986.52196 396.79102 980.78906 A 64.37252 64.37252 0 0 0 387.68164 968.74414 C 376.68495 971.94484 365.34122 974.38541 353.70312 976.00391 A 18.158043 18.158043 0 0 0 355.875 965.96484 A 18.158043 18.158043 0 0 0 337.68359 949.17773 z "
       id="legs"
       inkscape:label="#path4941">
      <desc
         id="desc4176">height: 12.6 mm</desc>
    </path>
    <path
       transform="matrix(-0.48754075,0.87310023,-0.87310023,-0.48754075,0,0)"
       style="display:inline;opacity:1;fill:#000000;fill-opacity:1;stroke:none;stroke-width:28.34645653;stroke-linecap:round;stroke-linejoin:round;stroke-miterlimit:4;stroke-dasharray:none;stroke-dashoffset:0;stroke-opacity:1"
       d="m 505.22739,-402.82333 a 7.0866141,7.0866141 0 0 1 -7.08661,7.08661 7.0866141,7.0866141 0 0 1 -7.08662,-7.08661 7.0866141,7.0866141 0 0 1 7.08662,-7.08662 7.0866141,7.0866141 0 0 1 7.08661,7.08662 z"
       id="hole_left"
       inkscape:label="#circle4943">
      <desc
         id="desc4186">height: 20 mm</desc>
    </path>
    <path
       transform="matrix(-0.48754075,0.87310023,-0.87310023,-0.48754075,0,0)"
       style="display:inline;opacity:1;fill:#000000;fill-opacity:1;stroke:none;stroke-width:28.34645653;stroke-linecap:round;stroke-linejoin:round;stroke-miterlimit:4;stroke-dasharray:none;stroke-dashoffset:0;stroke-opacity:1"
       d="m 686.99152,-766.521 a 7.0866141,7.0866141 0 0 1 -7.08661,7.08662 7.0866141,7.0866141 0 0 1 -7.08662,-7.08662 7.0866141,7.0866141 0 0 1 7.08662,-7.08661 7.0866141,7.0866141 0 0 1 7.08661,7.08661 z"
       id="hole_bottom"
       inkscape:label="#circle4949">
      <desc
         id="desc4184">height: 20mm</desc>
    </path>
    <path
       transform="matrix(-0.48754075,0.87310023,-0.87310023,-0.48754075,0,0)"
       style="display:inline;opacity:1;fill:#000000;fill-opacity:1;stroke:none;stroke-width:28.34645653;stroke-linecap:round;stroke-linejoin:round;stroke-miterlimit:4;stroke-dasharray:none;stroke-dashoffset:0;stroke-opacity:1"
       d="m 283.56186,-742.40332 a 7.0866141,7.0866141 0 0 1 -7.08661,7.08661 7.0866141,7.0866141 0 0 1 -7.08661,-7.08661 7.0866141,7.0866141 0 0 1 7.08661,-7.08661 7.0866141,7.0866141 0 0 1 7.08661,7.08661 z"
       id="hole_right"
       inkscape:label="#circle4953">
      <desc
         id="desc4182">height: 20 mm</desc>
    </path>
  </g>
</svg>
